<svg xmlns="http://www.w3.org/2000/svg" viewBox="0 0 96 96" role="img" aria-label="TD">
  <rect width="96" height="96" rx="24" fill="#0b0218"/>
  <rect x="1" y="1" width="94" height="94" rx="23" fill="none" stroke="rgba(255,255,255,0.14)" stroke-width="2"/>
  <path fill="#ffffff" d="M19 27h35v9H41v35H31V36H19V27Zm39 0h7c9.8 0 17 6.7 17 17.4 0 10.8-7.3 17.6-17.2 17.6H58V27Zm9.5 8.8v17.4h1.1c4.8 0 8.3-3.2 8.3-8.8 0-5.4-3.5-8.6-8.3-8.6h-1.1Z"/>
  <path fill="#ffffff" opacity="0.12" d="M17 76c18-8 43-9 63 0-18 5-43 5-63 0Z"/>
</svg>
